<mxfile host="app.diagrams.net" modified="2020-09-14T04:31:02.608Z" agent="5.0 (Macintosh; Intel Mac OS X 10_14_6) AppleWebKit/537.36 (KHTML, like Gecko) Chrome/84.0.4147.105 Safari/537.36 Edg/84.0.522.52" etag="YLgWu8-N_8MUfeptXHJp" version="13.6.5" type="github">
  <diagram name="Page-1" id="b5b7bab2-c9e2-2cf4-8b2a-24fd1a2a6d21">
    <mxGraphModel dx="1773" dy="536" grid="1" gridSize="10" guides="1" tooltips="1" connect="1" arrows="1" fold="1" page="1" pageScale="1" pageWidth="827" pageHeight="1169" background="#ffffff" math="0" shadow="0">
      <root>
        <mxCell id="0" />
        <mxCell id="1" parent="0" />
        <mxCell id="tvd1okN19O1a-mlgR9g5-6" value="" style="group" vertex="1" connectable="0" parent="1">
          <mxGeometry x="510" y="440" width="510" height="380" as="geometry" />
        </mxCell>
        <mxCell id="tvd1okN19O1a-mlgR9g5-4" value="" style="outlineConnect=0;fontColor=#232F3E;gradientColor=#F78E04;gradientDirection=north;fillColor=#D05C17;strokeColor=#ffffff;dashed=0;verticalLabelPosition=bottom;verticalAlign=top;align=center;html=1;fontSize=12;fontStyle=0;aspect=fixed;shape=mxgraph.aws4.resourceIcon;resIcon=mxgraph.aws4.ecs;" vertex="1" parent="tvd1okN19O1a-mlgR9g5-6">
          <mxGeometry width="78" height="78" as="geometry" />
        </mxCell>
        <mxCell id="tvd1okN19O1a-mlgR9g5-5" value="" style="whiteSpace=wrap;html=1;fillColor=none;dashed=1;" vertex="1" parent="tvd1okN19O1a-mlgR9g5-6">
          <mxGeometry width="510" height="380" as="geometry" />
        </mxCell>
        <mxCell id="tvd1okN19O1a-mlgR9g5-1" value="VPC" style="points=[[0,0],[0.25,0],[0.5,0],[0.75,0],[1,0],[1,0.25],[1,0.5],[1,0.75],[1,1],[0.75,1],[0.5,1],[0.25,1],[0,1],[0,0.75],[0,0.5],[0,0.25]];outlineConnect=0;gradientColor=none;html=1;whiteSpace=wrap;fontSize=12;fontStyle=0;shape=mxgraph.aws4.group;grIcon=mxgraph.aws4.group_vpc;strokeColor=#248814;fillColor=none;verticalAlign=top;align=left;spacingLeft=30;fontColor=#AAB7B8;dashed=0;" vertex="1" parent="1">
          <mxGeometry x="140" y="400" width="960" height="680" as="geometry" />
        </mxCell>
        <mxCell id="tvd1okN19O1a-mlgR9g5-2" value="" style="rounded=1;arcSize=10;dashed=1;strokeColor=#ff0000;fillColor=none;gradientColor=none;dashPattern=8 4;strokeWidth=2;" vertex="1" parent="1">
          <mxGeometry x="-70" y="800" width="199.5" height="199.5" as="geometry" />
        </mxCell>
        <mxCell id="tvd1okN19O1a-mlgR9g5-3" value="Private subnet" style="points=[[0,0],[0.25,0],[0.5,0],[0.75,0],[1,0],[1,0.25],[1,0.5],[1,0.75],[1,1],[0.75,1],[0.5,1],[0.25,1],[0,1],[0,0.75],[0,0.5],[0,0.25]];outlineConnect=0;gradientColor=none;html=1;whiteSpace=wrap;fontSize=12;fontStyle=0;shape=mxgraph.aws4.group;grIcon=mxgraph.aws4.group_security_group;grStroke=0;strokeColor=#147EBA;fillColor=#E6F2F8;verticalAlign=top;align=left;spacingLeft=30;fontColor=#147EBA;dashed=0;" vertex="1" parent="1">
          <mxGeometry x="600" y="480" width="400" height="255" as="geometry" />
        </mxCell>
        <mxCell id="tvd1okN19O1a-mlgR9g5-7" value="Ofertas" style="outlineConnect=0;fontColor=#232F3E;gradientColor=none;fillColor=#D05C17;strokeColor=none;dashed=0;verticalLabelPosition=bottom;verticalAlign=top;align=center;html=1;fontSize=12;fontStyle=0;aspect=fixed;pointerEvents=1;shape=mxgraph.aws4.container_1;" vertex="1" parent="1">
          <mxGeometry x="636" y="520" width="78" height="50" as="geometry" />
        </mxCell>
        <mxCell id="tvd1okN19O1a-mlgR9g5-8" value="Proposta" style="outlineConnect=0;fontColor=#232F3E;gradientColor=none;fillColor=#D05C17;strokeColor=none;dashed=0;verticalLabelPosition=bottom;verticalAlign=top;align=center;html=1;fontSize=12;fontStyle=0;aspect=fixed;pointerEvents=1;shape=mxgraph.aws4.container_1;" vertex="1" parent="1">
          <mxGeometry x="749" y="520" width="78" height="50" as="geometry" />
        </mxCell>
        <mxCell id="tvd1okN19O1a-mlgR9g5-9" value="Produtos" style="outlineConnect=0;fontColor=#232F3E;gradientColor=none;fillColor=#D05C17;strokeColor=none;dashed=0;verticalLabelPosition=bottom;verticalAlign=top;align=center;html=1;fontSize=12;fontStyle=0;aspect=fixed;pointerEvents=1;shape=mxgraph.aws4.container_1;" vertex="1" parent="1">
          <mxGeometry x="636" y="620" width="78" height="50" as="geometry" />
        </mxCell>
        <mxCell id="tvd1okN19O1a-mlgR9g5-10" value="Asssistencias" style="outlineConnect=0;fontColor=#232F3E;gradientColor=none;fillColor=#D05C17;strokeColor=none;dashed=0;verticalLabelPosition=bottom;verticalAlign=top;align=center;html=1;fontSize=12;fontStyle=0;aspect=fixed;pointerEvents=1;shape=mxgraph.aws4.container_1;" vertex="1" parent="1">
          <mxGeometry x="749" y="620" width="78" height="50" as="geometry" />
        </mxCell>
        <mxCell id="tvd1okN19O1a-mlgR9g5-12" value="Formalizaçäo" style="outlineConnect=0;fontColor=#232F3E;gradientColor=none;fillColor=#D05C17;strokeColor=none;dashed=0;verticalLabelPosition=bottom;verticalAlign=top;align=center;html=1;fontSize=12;fontStyle=0;aspect=fixed;pointerEvents=1;shape=mxgraph.aws4.container_1;" vertex="1" parent="1">
          <mxGeometry x="880" y="520" width="78" height="50" as="geometry" />
        </mxCell>
        <mxCell id="tvd1okN19O1a-mlgR9g5-13" value="Elegibilidade" style="outlineConnect=0;fontColor=#232F3E;gradientColor=none;fillColor=#D05C17;strokeColor=none;dashed=0;verticalLabelPosition=bottom;verticalAlign=top;align=center;html=1;fontSize=12;fontStyle=0;aspect=fixed;pointerEvents=1;shape=mxgraph.aws4.container_1;" vertex="1" parent="1">
          <mxGeometry x="880" y="620" width="78" height="50" as="geometry" />
        </mxCell>
        <mxCell id="tvd1okN19O1a-mlgR9g5-14" value="ECS Cluster" style="text;html=1;resizable=0;autosize=1;align=center;verticalAlign=middle;points=[];fillColor=none;strokeColor=none;rounded=0;dashed=1;" vertex="1" parent="1">
          <mxGeometry x="748" y="440" width="80" height="20" as="geometry" />
        </mxCell>
      </root>
    </mxGraphModel>
  </diagram>
</mxfile>
